# xmcd
#
# Track frame offsets:
#	150
#	24100
#	41410
#	67965
#	96010
#	108737
#	134345
#	157755
#	175845
#	186202
#	214292
#	239527
#	265322
#	281250
#	302527
#
# Disc length: 4251 seconds
# Revision: 0
# Processed by: cddbd v1.5.2PL0 Copyright (c) Steve Scherf et al.
# Submitted via: dBpowerAMP V12.0
#
DISCID=c610990f
DTITLE=Steve Anderson - Blues and Romance
DYEAR=1900
DGENRE=Blues
TTITLE0=Addicted To Your Love
TTITLE1=It's Not Easy To Fall Out Of Love
TTITLE2=Acapulco Summer Night
TTITLE3=Clouds And Rain
TTITLE4=Sugar Pie
TTITLE5=Please Come Home
TTITLE6=You Make Everything So Real
TTITLE7=I Wear Your Ball And Chain
TTITLE8=Spider And The Fly
TTITLE9=Sweet Emily
TTITLE10=You Move Me
TTITLE11=Holiday In Brazil
TTITLE12=2 Plus 1 =Blues
TTITLE13=You Set Me On Fire
TTITLE14=True Paradise
EXTD=
EXTT0=
EXTT1=
EXTT2=
EXTT3=
EXTT4=
EXTT5=
EXTT6=
EXTT7=
EXTT8=
EXTT9=
EXTT10=
EXTT11=
EXTT12=
EXTT13=
EXTT14=
PLAYORDER=
